<svg xmlns="http://www.w3.org/2000/svg" xmlns:xlink="http://www.w3.org/1999/xlink" width="794" zoomAndPan="magnify" viewBox="0 0 594.95996 842.24997" height="1123" preserveAspectRatio="xMidYMid meet" version="1.2"><defs><clipPath id="ddf76df80e"><path d="M 8.742188 131.695312 L 586.476562 131.695312 L 586.476562 709.429688 L 8.742188 709.429688 Z M 8.742188 131.695312 "/></clipPath><clipPath id="30b7798e49"><path d="M 586.476562 420.5625 C 586.476562 425.289062 586.359375 430.015625 586.128906 434.734375 C 585.898438 439.457031 585.550781 444.171875 585.085938 448.875 C 584.621094 453.582031 584.042969 458.269531 583.351562 462.945312 C 582.65625 467.625 581.847656 472.28125 580.925781 476.917969 C 580.003906 481.554688 578.96875 486.164062 577.820312 490.75 C 576.671875 495.335938 575.410156 499.890625 574.039062 504.414062 C 572.664062 508.9375 571.183594 513.425781 569.589844 517.878906 C 567.996094 522.328125 566.296875 526.738281 564.488281 531.105469 C 562.679688 535.472656 560.761719 539.792969 558.742188 544.066406 C 556.722656 548.34375 554.597656 552.5625 552.367188 556.734375 C 550.140625 560.902344 547.808594 565.015625 545.378906 569.070312 C 542.949219 573.125 540.421875 577.117188 537.792969 581.046875 C 535.167969 584.980469 532.445312 588.84375 529.628906 592.640625 C 526.8125 596.4375 523.90625 600.164062 520.90625 603.816406 C 517.90625 607.472656 514.820312 611.050781 511.644531 614.554688 C 508.472656 618.054688 505.210938 621.480469 501.867188 624.820312 C 498.527344 628.164062 495.101562 631.421875 491.601562 634.597656 C 488.097656 637.773438 484.519531 640.859375 480.863281 643.859375 C 477.210938 646.859375 473.484375 649.765625 469.6875 652.582031 C 465.890625 655.398438 462.027344 658.121094 458.09375 660.746094 C 454.164062 663.371094 450.171875 665.902344 446.117188 668.332031 C 442.0625 670.761719 437.949219 673.089844 433.78125 675.320312 C 429.609375 677.546875 425.390625 679.671875 421.117188 681.695312 C 416.84375 683.714844 412.519531 685.632812 408.152344 687.441406 C 403.785156 689.25 399.375 690.949219 394.925781 692.542969 C 390.472656 694.136719 385.988281 695.617188 381.460938 696.992188 C 376.9375 698.363281 372.382812 699.625 367.796875 700.773438 C 363.210938 701.921875 358.601562 702.957031 353.964844 703.878906 C 349.328125 704.800781 344.671875 705.609375 339.996094 706.300781 C 335.316406 706.996094 330.628906 707.574219 325.921875 708.039062 C 321.21875 708.5 316.503906 708.847656 311.78125 709.082031 C 307.0625 709.3125 302.335938 709.429688 297.609375 709.429688 C 292.882812 709.429688 288.15625 709.3125 283.433594 709.082031 C 278.714844 708.847656 274 708.5 269.292969 708.039062 C 264.589844 707.574219 259.898438 706.996094 255.222656 706.300781 C 250.546875 705.609375 245.890625 704.800781 241.253906 703.878906 C 236.617188 702.957031 232.003906 701.921875 227.417969 700.773438 C 222.832031 699.625 218.277344 698.363281 213.753906 696.992188 C 209.230469 695.617188 204.742188 694.136719 200.292969 692.542969 C 195.839844 690.949219 191.429688 689.25 187.0625 687.441406 C 182.695312 685.632812 178.375 683.714844 174.101562 681.695312 C 169.828125 679.671875 165.605469 677.546875 161.4375 675.320312 C 157.269531 673.089844 153.15625 670.761719 149.101562 668.332031 C 145.046875 665.902344 141.054688 663.371094 137.121094 660.746094 C 133.191406 658.121094 129.328125 655.398438 125.53125 652.582031 C 121.734375 649.765625 118.007812 646.859375 114.351562 643.859375 C 110.699219 640.859375 107.121094 637.773438 103.617188 634.597656 C 100.113281 631.421875 96.691406 628.164062 93.347656 624.820312 C 90.003906 621.480469 86.746094 618.054688 83.570312 614.554688 C 80.398438 611.050781 77.308594 607.472656 74.3125 603.816406 C 71.3125 600.164062 68.402344 596.4375 65.589844 592.640625 C 62.773438 588.84375 60.050781 584.980469 57.425781 581.046875 C 54.796875 577.117188 52.269531 573.125 49.839844 569.070312 C 47.410156 565.015625 45.078125 560.902344 42.851562 556.734375 C 40.621094 552.5625 38.496094 548.34375 36.476562 544.066406 C 34.453125 539.792969 32.539062 535.472656 30.730469 531.105469 C 28.921875 526.738281 27.21875 522.328125 25.628906 517.878906 C 24.035156 513.425781 22.550781 508.9375 21.179688 504.414062 C 19.808594 499.890625 18.546875 495.335938 17.398438 490.75 C 16.25 486.164062 15.214844 481.554688 14.292969 476.917969 C 13.371094 472.28125 12.5625 467.625 11.867188 462.945312 C 11.175781 458.269531 10.59375 453.582031 10.132812 448.875 C 9.667969 444.171875 9.320312 439.457031 9.089844 434.734375 C 8.855469 430.015625 8.742188 425.289062 8.742188 420.5625 C 8.742188 415.832031 8.855469 411.109375 9.089844 406.386719 C 9.320312 401.664062 9.667969 396.953125 10.132812 392.246094 C 10.59375 387.542969 11.175781 382.851562 11.867188 378.175781 C 12.5625 373.5 13.371094 368.84375 14.292969 364.207031 C 15.214844 359.570312 16.25 354.957031 17.398438 350.371094 C 18.546875 345.785156 19.808594 341.230469 21.179688 336.707031 C 22.550781 332.183594 24.035156 327.695312 25.628906 323.246094 C 27.21875 318.792969 28.921875 314.382812 30.730469 310.015625 C 32.539062 305.648438 34.453125 301.328125 36.476562 297.054688 C 38.496094 292.78125 40.621094 288.558594 42.851562 284.390625 C 45.078125 280.222656 47.410156 276.109375 49.839844 272.054688 C 52.269531 268 54.796875 264.007812 57.425781 260.074219 C 60.050781 256.144531 62.773438 252.28125 65.589844 248.484375 C 68.402344 244.6875 71.3125 240.960938 74.3125 237.304688 C 77.308594 233.652344 80.398438 230.074219 83.570312 226.570312 C 86.746094 223.066406 90.003906 219.644531 93.347656 216.300781 C 96.691406 212.957031 100.113281 209.699219 103.617188 206.523438 C 107.121094 203.351562 110.699219 200.261719 114.351562 197.265625 C 118.007812 194.265625 121.734375 191.355469 125.53125 188.539062 C 129.328125 185.722656 133.191406 183.003906 137.121094 180.375 C 141.054688 177.75 145.046875 175.222656 149.101562 172.792969 C 153.15625 170.359375 157.269531 168.03125 161.4375 165.804688 C 165.605469 163.574219 169.828125 161.449219 174.101562 159.429688 C 178.375 157.40625 182.695312 155.492188 187.0625 153.683594 C 191.429688 151.875 195.839844 150.171875 200.292969 148.578125 C 204.742188 146.988281 209.230469 145.503906 213.753906 144.132812 C 218.277344 142.761719 222.832031 141.5 227.417969 140.351562 C 232.003906 139.203125 236.617188 138.167969 241.253906 137.246094 C 245.890625 136.320312 250.546875 135.515625 255.222656 134.820312 C 259.898438 134.125 264.589844 133.546875 269.292969 133.085938 C 274 132.621094 278.714844 132.273438 283.433594 132.042969 C 288.15625 131.808594 292.882812 131.695312 297.609375 131.695312 C 302.335938 131.695312 307.0625 131.808594 311.78125 132.042969 C 316.503906 132.273438 321.21875 132.621094 325.921875 133.085938 C 330.628906 133.546875 335.316406 134.125 339.996094 134.820312 C 344.671875 135.515625 349.328125 136.320312 353.964844 137.246094 C 358.601562 138.167969 363.210938 139.203125 367.796875 140.351562 C 372.382812 141.5 376.9375 142.761719 381.460938 144.132812 C 385.988281 145.503906 390.472656 146.988281 394.925781 148.578125 C 399.375 150.171875 403.785156 151.875 408.152344 153.683594 C 412.519531 155.492188 416.84375 157.40625 421.117188 159.429688 C 425.390625 161.449219 429.609375 163.574219 433.78125 165.804688 C 437.949219 168.03125 442.0625 170.359375 446.117188 172.792969 C 450.171875 175.222656 454.164062 177.75 458.09375 180.375 C 462.027344 183.003906 465.890625 185.722656 469.6875 188.539062 C 473.484375 191.355469 477.210938 194.265625 480.863281 197.265625 C 484.519531 200.261719 488.097656 203.351562 491.601562 206.523438 C 495.101562 209.699219 498.527344 212.957031 501.867188 216.300781 C 505.210938 219.644531 508.472656 223.066406 511.644531 226.570312 C 514.820312 230.074219 517.90625 233.652344 520.90625 237.304688 C 523.90625 240.960938 526.8125 244.6875 529.628906 248.484375 C 532.445312 252.28125 535.167969 256.144531 537.792969 260.074219 C 540.421875 264.007812 542.949219 268 545.378906 272.054688 C 547.808594 276.109375 550.140625 280.222656 552.367188 284.390625 C 554.597656 288.558594 556.722656 292.78125 558.742188 297.054688 C 560.761719 301.328125 562.679688 305.648438 564.488281 310.015625 C 566.296875 314.382812 567.996094 318.792969 569.589844 323.246094 C 571.183594 327.695312 572.664062 332.183594 574.039062 336.707031 C 575.410156 341.230469 576.671875 345.785156 577.820312 350.371094 C 578.96875 354.957031 580.003906 359.570312 580.925781 364.207031 C 581.847656 368.84375 582.65625 373.5 583.351562 378.175781 C 584.042969 382.851562 584.621094 387.542969 585.085938 392.246094 C 585.550781 396.953125 585.898438 401.664062 586.128906 406.386719 C 586.359375 411.109375 586.476562 415.832031 586.476562 420.5625 Z M 586.476562 420.5625 "/></clipPath><linearGradient x1="0.0499037" gradientTransform="matrix(1.881875,0,0,1.881875,8.741041,131.693756)" y1="307.04989" x2="307.050595" gradientUnits="userSpaceOnUse" y2="0.0506103" id="b554e9f1a2"><stop style="stop-color:#fec053;stop-opacity:1;" offset="0"/><stop style="stop-color:#fec053;stop-opacity:1;" offset="0.125"/><stop style="stop-color:#fec053;stop-opacity:1;" offset="0.140625"/><stop style="stop-color:#fec053;stop-opacity:1;" offset="0.144531"/><stop style="stop-color:#febf53;stop-opacity:1;" offset="0.148438"/><stop style="stop-color:#febd52;stop-opacity:1;" offset="0.152344"/><stop style="stop-color:#febb52;stop-opacity:1;" offset="0.15625"/><stop style="stop-color:#fdb952;stop-opacity:1;" offset="0.160156"/><stop style="stop-color:#fdb852;stop-opacity:1;" offset="0.164062"/><stop style="stop-color:#fdb652;stop-opacity:1;" offset="0.167969"/><stop style="stop-color:#fdb451;stop-opacity:1;" offset="0.171875"/><stop style="stop-color:#fdb251;stop-opacity:1;" offset="0.175781"/><stop style="stop-color:#fdb051;stop-opacity:1;" offset="0.179688"/><stop style="stop-color:#fdae51;stop-opacity:1;" offset="0.183594"/><stop style="stop-color:#fcac50;stop-opacity:1;" offset="0.1875"/><stop style="stop-color:#fcaa50;stop-opacity:1;" offset="0.191406"/><stop style="stop-color:#fca950;stop-opacity:1;" offset="0.195313"/><stop style="stop-color:#fca750;stop-opacity:1;" offset="0.199219"/><stop style="stop-color:#fca54f;stop-opacity:1;" offset="0.203125"/><stop style="stop-color:#fca34f;stop-opacity:1;" offset="0.207031"/><stop style="stop-color:#fca14f;stop-opacity:1;" offset="0.210938"/><stop style="stop-color:#fc9f4f;stop-opacity:1;" offset="0.214844"/><stop style="stop-color:#fb9d4e;stop-opacity:1;" offset="0.21875"/><stop style="stop-color:#fb9b4e;stop-opacity:1;" offset="0.222656"/><stop style="stop-color:#fb9a4e;stop-opacity:1;" offset="0.226562"/><stop style="stop-color:#fb984e;stop-opacity:1;" offset="0.230469"/><stop style="stop-color:#fb964d;stop-opacity:1;" offset="0.234375"/><stop style="stop-color:#fb944d;stop-opacity:1;" offset="0.238281"/><stop style="stop-color:#fb924d;stop-opacity:1;" offset="0.242188"/><stop style="stop-color:#fa904d;stop-opacity:1;" offset="0.246094"/><stop style="stop-color:#fa8e4c;stop-opacity:1;" offset="0.25"/><stop style="stop-color:#fa8c4c;stop-opacity:1;" offset="0.253906"/><stop style="stop-color:#fa8b4c;stop-opacity:1;" offset="0.257812"/><stop style="stop-color:#fa894c;stop-opacity:1;" offset="0.261719"/><stop style="stop-color:#fa874b;stop-opacity:1;" offset="0.265625"/><stop style="stop-color:#fa854b;stop-opacity:1;" offset="0.269531"/><stop style="stop-color:#f9834b;stop-opacity:1;" offset="0.273438"/><stop style="stop-color:#f9814b;stop-opacity:1;" offset="0.277344"/><stop style="stop-color:#f97f4a;stop-opacity:1;" offset="0.28125"/><stop style="stop-color:#f97d4a;stop-opacity:1;" offset="0.285156"/><stop style="stop-color:#f97c4a;stop-opacity:1;" offset="0.289063"/><stop style="stop-color:#f97a4a;stop-opacity:1;" offset="0.292969"/><stop style="stop-color:#f97849;stop-opacity:1;" offset="0.296875"/><stop style="stop-color:#f87649;stop-opacity:1;" offset="0.300781"/><stop style="stop-color:#f87449;stop-opacity:1;" offset="0.304688"/><stop style="stop-color:#f87249;stop-opacity:1;" offset="0.308594"/><stop style="stop-color:#f87048;stop-opacity:1;" offset="0.3125"/><stop style="stop-color:#f86e48;stop-opacity:1;" offset="0.316406"/><stop style="stop-color:#f86d48;stop-opacity:1;" offset="0.320312"/><stop style="stop-color:#f86b48;stop-opacity:1;" offset="0.324219"/><stop style="stop-color:#f76947;stop-opacity:1;" offset="0.328125"/><stop style="stop-color:#f76747;stop-opacity:1;" offset="0.332031"/><stop style="stop-color:#f76547;stop-opacity:1;" offset="0.335938"/><stop style="stop-color:#f76347;stop-opacity:1;" offset="0.339844"/><stop style="stop-color:#f76147;stop-opacity:1;" offset="0.34375"/><stop style="stop-color:#f75f46;stop-opacity:1;" offset="0.347656"/><stop style="stop-color:#f75e46;stop-opacity:1;" offset="0.351562"/><stop style="stop-color:#f65c46;stop-opacity:1;" offset="0.355469"/><stop style="stop-color:#f65a46;stop-opacity:1;" offset="0.359375"/><stop style="stop-color:#f65845;stop-opacity:1;" offset="0.363281"/><stop style="stop-color:#f65645;stop-opacity:1;" offset="0.367188"/><stop style="stop-color:#f65445;stop-opacity:1;" offset="0.371094"/><stop style="stop-color:#f65245;stop-opacity:1;" offset="0.375"/><stop style="stop-color:#f65044;stop-opacity:1;" offset="0.378906"/><stop style="stop-color:#f54e44;stop-opacity:1;" offset="0.382812"/><stop style="stop-color:#f54d44;stop-opacity:1;" offset="0.386719"/><stop style="stop-color:#f54b44;stop-opacity:1;" offset="0.390625"/><stop style="stop-color:#f54943;stop-opacity:1;" offset="0.394531"/><stop style="stop-color:#f54743;stop-opacity:1;" offset="0.398438"/><stop style="stop-color:#f54543;stop-opacity:1;" offset="0.402344"/><stop style="stop-color:#f54343;stop-opacity:1;" offset="0.40625"/><stop style="stop-color:#f44142;stop-opacity:1;" offset="0.410156"/><stop style="stop-color:#f43f42;stop-opacity:1;" offset="0.414063"/><stop style="stop-color:#f43e42;stop-opacity:1;" offset="0.417969"/><stop style="stop-color:#f43c42;stop-opacity:1;" offset="0.421875"/><stop style="stop-color:#f43a41;stop-opacity:1;" offset="0.425781"/><stop style="stop-color:#f43841;stop-opacity:1;" offset="0.429688"/><stop style="stop-color:#f43641;stop-opacity:1;" offset="0.433594"/><stop style="stop-color:#f43441;stop-opacity:1;" offset="0.4375"/><stop style="stop-color:#f33240;stop-opacity:1;" offset="0.441406"/><stop style="stop-color:#f33040;stop-opacity:1;" offset="0.445312"/><stop style="stop-color:#f32f40;stop-opacity:1;" offset="0.449219"/><stop style="stop-color:#f32d40;stop-opacity:1;" offset="0.453125"/><stop style="stop-color:#f32b3f;stop-opacity:1;" offset="0.457031"/><stop style="stop-color:#f3293f;stop-opacity:1;" offset="0.460938"/><stop style="stop-color:#f3273f;stop-opacity:1;" offset="0.464844"/><stop style="stop-color:#f2253f;stop-opacity:1;" offset="0.46875"/><stop style="stop-color:#f2233e;stop-opacity:1;" offset="0.472656"/><stop style="stop-color:#f2213e;stop-opacity:1;" offset="0.476562"/><stop style="stop-color:#f1213f;stop-opacity:1;" offset="0.480469"/><stop style="stop-color:#f02041;stop-opacity:1;" offset="0.484375"/><stop style="stop-color:#ef2043;stop-opacity:1;" offset="0.488281"/><stop style="stop-color:#ee2046;stop-opacity:1;" offset="0.492188"/><stop style="stop-color:#ec2048;stop-opacity:1;" offset="0.496094"/><stop style="stop-color:#eb204a;stop-opacity:1;" offset="0.5"/><stop style="stop-color:#ea204d;stop-opacity:1;" offset="0.503906"/><stop style="stop-color:#e8204f;stop-opacity:1;" offset="0.507812"/><stop style="stop-color:#e72052;stop-opacity:1;" offset="0.511719"/><stop style="stop-color:#e62054;stop-opacity:1;" offset="0.515625"/><stop style="stop-color:#e42057;stop-opacity:1;" offset="0.519531"/><stop style="stop-color:#e32059;stop-opacity:1;" offset="0.523438"/><stop style="stop-color:#e2205b;stop-opacity:1;" offset="0.527344"/><stop style="stop-color:#e0205e;stop-opacity:1;" offset="0.53125"/><stop style="stop-color:#df2060;stop-opacity:1;" offset="0.535156"/><stop style="stop-color:#de2063;stop-opacity:1;" offset="0.539062"/><stop style="stop-color:#dc2065;stop-opacity:1;" offset="0.542969"/><stop style="stop-color:#db2068;stop-opacity:1;" offset="0.546875"/><stop style="stop-color:#d9206a;stop-opacity:1;" offset="0.550781"/><stop style="stop-color:#d8206d;stop-opacity:1;" offset="0.554688"/><stop style="stop-color:#d7206f;stop-opacity:1;" offset="0.558594"/><stop style="stop-color:#d52071;stop-opacity:1;" offset="0.5625"/><stop style="stop-color:#d41f74;stop-opacity:1;" offset="0.566406"/><stop style="stop-color:#d31f76;stop-opacity:1;" offset="0.570313"/><stop style="stop-color:#d11f79;stop-opacity:1;" offset="0.574219"/><stop style="stop-color:#d01f7b;stop-opacity:1;" offset="0.578125"/><stop style="stop-color:#cf1f7e;stop-opacity:1;" offset="0.582031"/><stop style="stop-color:#cd1f80;stop-opacity:1;" offset="0.585938"/><stop style="stop-color:#cc1f82;stop-opacity:1;" offset="0.589844"/><stop style="stop-color:#cb1f85;stop-opacity:1;" offset="0.59375"/><stop style="stop-color:#c91f87;stop-opacity:1;" offset="0.597656"/><stop style="stop-color:#c81f8a;stop-opacity:1;" offset="0.601562"/><stop style="stop-color:#c71f8c;stop-opacity:1;" offset="0.605469"/><stop style="stop-color:#c51f8f;stop-opacity:1;" offset="0.609375"/><stop style="stop-color:#c41f91;stop-opacity:1;" offset="0.613281"/><stop style="stop-color:#c31f93;stop-opacity:1;" offset="0.617188"/><stop style="stop-color:#c11f96;stop-opacity:1;" offset="0.621094"/><stop style="stop-color:#c01f98;stop-opacity:1;" offset="0.625"/><stop style="stop-color:#be1f9b;stop-opacity:1;" offset="0.628906"/><stop style="stop-color:#bd1f9d;stop-opacity:1;" offset="0.632812"/><stop style="stop-color:#bc1fa0;stop-opacity:1;" offset="0.636719"/><stop style="stop-color:#ba1fa2;stop-opacity:1;" offset="0.640625"/><stop style="stop-color:#b91fa4;stop-opacity:1;" offset="0.644531"/><stop style="stop-color:#b81fa7;stop-opacity:1;" offset="0.648438"/><stop style="stop-color:#b620a8;stop-opacity:1;" offset="0.652344"/><stop style="stop-color:#b421a9;stop-opacity:1;" offset="0.65625"/><stop style="stop-color:#b222aa;stop-opacity:1;" offset="0.660156"/><stop style="stop-color:#b023ab;stop-opacity:1;" offset="0.664062"/><stop style="stop-color:#ae23ac;stop-opacity:1;" offset="0.667969"/><stop style="stop-color:#ac24ad;stop-opacity:1;" offset="0.671875"/><stop style="stop-color:#aa25ae;stop-opacity:1;" offset="0.675781"/><stop style="stop-color:#a926af;stop-opacity:1;" offset="0.679687"/><stop style="stop-color:#a727b0;stop-opacity:1;" offset="0.683594"/><stop style="stop-color:#a528b0;stop-opacity:1;" offset="0.6875"/><stop style="stop-color:#a329b1;stop-opacity:1;" offset="0.691406"/><stop style="stop-color:#a12ab2;stop-opacity:1;" offset="0.695312"/><stop style="stop-color:#9f2bb3;stop-opacity:1;" offset="0.699219"/><stop style="stop-color:#9d2cb4;stop-opacity:1;" offset="0.703125"/><stop style="stop-color:#9b2db5;stop-opacity:1;" offset="0.707031"/><stop style="stop-color:#992eb6;stop-opacity:1;" offset="0.710938"/><stop style="stop-color:#972fb7;stop-opacity:1;" offset="0.714844"/><stop style="stop-color:#9530b8;stop-opacity:1;" offset="0.71875"/><stop style="stop-color:#9331b8;stop-opacity:1;" offset="0.722656"/><stop style="stop-color:#9132b9;stop-opacity:1;" offset="0.726562"/><stop style="stop-color:#8f33ba;stop-opacity:1;" offset="0.730469"/><stop style="stop-color:#8e34bb;stop-opacity:1;" offset="0.734375"/><stop style="stop-color:#8c35bc;stop-opacity:1;" offset="0.738281"/><stop style="stop-color:#8a36bd;stop-opacity:1;" offset="0.742188"/><stop style="stop-color:#8837be;stop-opacity:1;" offset="0.746094"/><stop style="stop-color:#8638bf;stop-opacity:1;" offset="0.75"/><stop style="stop-color:#8439bf;stop-opacity:1;" offset="0.753906"/><stop style="stop-color:#823ac0;stop-opacity:1;" offset="0.757812"/><stop style="stop-color:#803bc1;stop-opacity:1;" offset="0.761719"/><stop style="stop-color:#7e3cc2;stop-opacity:1;" offset="0.765625"/><stop style="stop-color:#7c3cc3;stop-opacity:1;" offset="0.769531"/><stop style="stop-color:#7a3dc4;stop-opacity:1;" offset="0.773438"/><stop style="stop-color:#783ec5;stop-opacity:1;" offset="0.777344"/><stop style="stop-color:#763fc6;stop-opacity:1;" offset="0.78125"/><stop style="stop-color:#7440c7;stop-opacity:1;" offset="0.785156"/><stop style="stop-color:#7341c7;stop-opacity:1;" offset="0.789062"/><stop style="stop-color:#7142c8;stop-opacity:1;" offset="0.792969"/><stop style="stop-color:#6f43c9;stop-opacity:1;" offset="0.796875"/><stop style="stop-color:#6d44ca;stop-opacity:1;" offset="0.800781"/><stop style="stop-color:#6b45cb;stop-opacity:1;" offset="0.804688"/><stop style="stop-color:#6946cc;stop-opacity:1;" offset="0.808594"/><stop style="stop-color:#6747cd;stop-opacity:1;" offset="0.8125"/><stop style="stop-color:#6548ce;stop-opacity:1;" offset="0.816406"/><stop style="stop-color:#6349cf;stop-opacity:1;" offset="0.820313"/><stop style="stop-color:#614acf;stop-opacity:1;" offset="0.824219"/><stop style="stop-color:#5f4bd0;stop-opacity:1;" offset="0.828125"/><stop style="stop-color:#5d4cd1;stop-opacity:1;" offset="0.832031"/><stop style="stop-color:#5b4dd2;stop-opacity:1;" offset="0.835938"/><stop style="stop-color:#594ed3;stop-opacity:1;" offset="0.839844"/><stop style="stop-color:#574fd4;stop-opacity:1;" offset="0.84375"/><stop style="stop-color:#5650d5;stop-opacity:1;" offset="0.847656"/><stop style="stop-color:#5451d6;stop-opacity:1;" offset="0.851562"/><stop style="stop-color:#5351d6;stop-opacity:1;" offset="0.859375"/><stop style="stop-color:#5351d6;stop-opacity:1;" offset="0.875"/><stop style="stop-color:#5351d6;stop-opacity:1;" offset="1"/></linearGradient></defs><g id="629588027e"><g clip-rule="nonzero" clip-path="url(#ddf76df80e)"><g clip-rule="nonzero" clip-path="url(#30b7798e49)"><path style=" stroke:none;fill-rule:nonzero;fill:url(#b554e9f1a2);" d="M 8.742188 131.695312 L 8.742188 709.429688 L 586.476562 709.429688 L 586.476562 131.695312 Z M 8.742188 131.695312 "/></g></g><path style=" stroke:none;fill-rule:nonzero;fill:#ffffff;fill-opacity:1;" d="M 375.113281 594.894531 L 221.113281 594.894531 C 167.722656 594.894531 124.285156 551.460938 124.285156 498.066406 L 124.285156 344.066406 C 124.285156 290.671875 167.722656 247.238281 221.113281 247.238281 L 375.113281 247.238281 C 428.507812 247.238281 471.941406 290.671875 471.941406 344.066406 L 471.941406 498.066406 C 471.941406 551.460938 428.507812 594.894531 375.113281 594.894531 Z M 221.113281 270.773438 C 180.699219 270.773438 147.820312 303.652344 147.820312 344.066406 L 147.820312 498.066406 C 147.820312 538.476562 180.699219 571.359375 221.113281 571.359375 L 375.113281 571.359375 C 415.523438 571.359375 448.40625 538.476562 448.40625 498.066406 L 448.40625 344.066406 C 448.40625 303.652344 415.523438 270.773438 375.113281 270.773438 Z M 221.113281 270.773438 "/><path style=" stroke:none;fill-rule:nonzero;fill:#ffffff;fill-opacity:1;" d="M 298.117188 507.179688 C 250.640625 507.179688 212.011719 468.550781 212.011719 421.070312 C 212.011719 373.59375 250.640625 334.964844 298.117188 334.964844 C 345.597656 334.964844 384.226562 373.59375 384.226562 421.070312 C 384.226562 468.550781 345.597656 507.179688 298.117188 507.179688 Z M 298.117188 358.496094 C 263.617188 358.496094 235.546875 386.5625 235.546875 421.066406 C 235.546875 455.570312 263.621094 483.636719 298.117188 483.636719 C 332.617188 483.636719 360.6875 455.570312 360.6875 421.066406 C 360.6875 386.5625 332.621094 358.496094 298.117188 358.496094 Z M 298.117188 358.496094 "/></g></svg>