<svg xmlns="http://www.w3.org/2000/svg" xmlns:xlink="http://www.w3.org/1999/xlink" width="794" zoomAndPan="magnify" viewBox="0 0 594.95996 842.24997" height="1123" preserveAspectRatio="xMidYMid meet" version="1.2"><defs><clipPath id="cb2fa95f3d"><path d="M 8.742188 131.695312 L 586.476562 131.695312 L 586.476562 709.429688 L 8.742188 709.429688 Z M 8.742188 131.695312 "/></clipPath></defs><g id="c0dbd9c17d"><g clip-rule="nonzero" clip-path="url(#cb2fa95f3d)"><path style=" stroke:none;fill-rule:nonzero;fill:#000000;fill-opacity:1;" d="M 586.488281 420.542969 C 586.488281 425.269531 586.371094 429.996094 586.136719 434.71875 C 585.90625 439.441406 585.558594 444.152344 585.09375 448.859375 C 584.632812 453.5625 584.054688 458.253906 583.359375 462.933594 C 582.667969 467.609375 581.859375 472.265625 580.9375 476.902344 C 580.011719 481.539062 578.976562 486.152344 577.828125 490.738281 C 576.679688 495.324219 575.417969 499.878906 574.046875 504.402344 C 572.675781 508.925781 571.191406 513.414062 569.597656 517.867188 C 568.007812 522.316406 566.304688 526.726562 564.496094 531.09375 C 562.6875 535.464844 560.773438 539.785156 558.75 544.058594 C 556.730469 548.332031 554.605469 552.554688 552.375 556.722656 C 550.148438 560.894531 547.816406 565.003906 545.386719 569.058594 C 542.957031 573.117188 540.425781 577.109375 537.800781 581.039062 C 535.171875 584.972656 532.453125 588.835938 529.636719 592.632812 C 526.820312 596.429688 523.910156 600.15625 520.914062 603.8125 C 517.914062 607.464844 514.824219 611.042969 511.652344 614.546875 C 508.476562 618.050781 505.21875 621.472656 501.875 624.816406 C 498.53125 628.160156 495.109375 631.417969 491.605469 634.59375 C 488.101562 637.769531 484.523438 640.855469 480.867188 643.855469 C 477.214844 646.855469 473.488281 649.761719 469.691406 652.578125 C 465.890625 655.394531 462.027344 658.117188 458.097656 660.742188 C 454.164062 663.371094 450.171875 665.898438 446.117188 668.328125 C 442.0625 670.757812 437.949219 673.089844 433.78125 675.316406 C 429.609375 677.546875 425.390625 679.671875 421.113281 681.691406 C 416.839844 683.714844 412.519531 685.628906 408.152344 687.4375 C 403.785156 689.25 399.375 690.949219 394.921875 692.542969 C 390.472656 694.136719 385.984375 695.617188 381.460938 696.988281 C 376.933594 698.363281 372.378906 699.625 367.792969 700.773438 C 363.207031 701.921875 358.597656 702.957031 353.960938 703.878906 C 349.324219 704.800781 344.664062 705.609375 339.988281 706.300781 C 335.3125 706.996094 330.621094 707.574219 325.917969 708.039062 C 321.210938 708.5 316.496094 708.847656 311.777344 709.082031 C 307.054688 709.3125 302.328125 709.429688 297.601562 709.429688 C 292.871094 709.429688 288.148438 709.3125 283.425781 709.082031 C 278.703125 708.847656 273.988281 708.5 269.285156 708.039062 C 264.578125 707.574219 259.890625 706.996094 255.210938 706.300781 C 250.535156 705.609375 245.878906 704.800781 241.242188 703.878906 C 236.605469 702.957031 231.992188 701.921875 227.40625 700.773438 C 222.820312 699.625 218.265625 698.363281 213.742188 696.988281 C 209.21875 695.617188 204.730469 694.136719 200.277344 692.542969 C 195.828125 690.949219 191.417969 689.25 187.046875 687.4375 C 182.679688 685.628906 178.359375 683.714844 174.085938 681.691406 C 169.8125 679.671875 165.589844 677.546875 161.421875 675.316406 C 157.25 673.089844 153.140625 670.761719 149.082031 668.328125 C 145.027344 665.898438 141.035156 663.371094 137.105469 660.742188 C 133.171875 658.117188 129.308594 655.394531 125.511719 652.578125 C 121.714844 649.761719 117.988281 646.855469 114.332031 643.855469 C 110.679688 640.855469 107.101562 637.769531 103.597656 634.59375 C 100.09375 631.417969 96.671875 628.160156 93.328125 624.816406 C 89.984375 621.472656 86.726562 618.050781 83.550781 614.546875 C 80.375 611.042969 77.289062 607.464844 74.289062 603.8125 C 71.289062 600.15625 68.382812 596.429688 65.566406 592.632812 C 62.75 588.835938 60.027344 584.972656 57.402344 581.039062 C 54.773438 577.109375 52.246094 573.117188 49.816406 569.058594 C 47.382812 565.003906 45.054688 560.894531 42.824219 556.722656 C 40.597656 552.554688 38.472656 548.332031 36.449219 544.058594 C 34.429688 539.785156 32.515625 535.464844 30.703125 531.09375 C 28.894531 526.726562 27.195312 522.316406 25.601562 517.867188 C 24.007812 513.414062 22.527344 508.925781 21.152344 504.402344 C 19.78125 499.878906 18.519531 495.324219 17.371094 490.738281 C 16.222656 486.152344 15.1875 481.539062 14.265625 476.902344 C 13.34375 472.265625 12.535156 467.609375 11.839844 462.933594 C 11.148438 458.253906 10.570312 453.5625 10.105469 448.859375 C 9.640625 444.152344 9.292969 439.441406 9.0625 434.71875 C 8.832031 429.996094 8.714844 425.269531 8.714844 420.542969 C 8.714844 415.816406 8.832031 411.089844 9.0625 406.367188 C 9.292969 401.644531 9.640625 396.933594 10.105469 392.226562 C 10.570312 387.523438 11.148438 382.832031 11.839844 378.15625 C 12.535156 373.476562 13.34375 368.820312 14.265625 364.183594 C 15.1875 359.546875 16.222656 354.9375 17.371094 350.351562 C 18.519531 345.761719 19.78125 341.207031 21.152344 336.683594 C 22.527344 332.160156 24.007812 327.671875 25.601562 323.21875 C 27.195312 318.769531 28.894531 314.359375 30.703125 309.992188 C 32.515625 305.625 34.429688 301.300781 36.449219 297.027344 C 38.472656 292.753906 40.597656 288.53125 42.824219 284.363281 C 45.054688 280.195312 47.382812 276.082031 49.816406 272.027344 C 52.246094 267.972656 54.773438 263.976562 57.402344 260.046875 C 60.027344 256.117188 62.75 252.25 65.566406 248.453125 C 68.382812 244.65625 71.289062 240.929688 74.289062 237.277344 C 77.289062 233.621094 80.375 230.042969 83.550781 226.539062 C 86.726562 223.035156 89.984375 219.613281 93.328125 216.269531 C 96.671875 212.925781 100.09375 209.667969 103.597656 206.492188 C 107.101562 203.316406 110.679688 200.230469 114.332031 197.230469 C 117.988281 194.230469 121.714844 191.324219 125.511719 188.507812 C 129.308594 185.691406 133.171875 182.96875 137.105469 180.34375 C 141.035156 177.71875 145.027344 175.1875 149.082031 172.757812 C 153.140625 170.328125 157.25 167.996094 161.421875 165.769531 C 165.589844 163.539062 169.8125 161.414062 174.085938 159.394531 C 178.359375 157.371094 182.679688 155.457031 187.046875 153.648438 C 191.417969 151.839844 195.828125 150.136719 200.277344 148.542969 C 204.730469 146.953125 209.21875 145.46875 213.742188 144.097656 C 218.265625 142.722656 222.820312 141.464844 227.40625 140.316406 C 231.992188 139.167969 236.605469 138.128906 241.242188 137.207031 C 245.878906 136.285156 250.535156 135.476562 255.210938 134.785156 C 259.890625 134.089844 264.578125 133.511719 269.285156 133.046875 C 273.988281 132.585938 278.703125 132.238281 283.425781 132.003906 C 288.148438 131.773438 292.871094 131.65625 297.601562 131.65625 C 302.328125 131.65625 307.054688 131.773438 311.777344 132.003906 C 316.496094 132.238281 321.210938 132.585938 325.917969 133.046875 C 330.621094 133.511719 335.3125 134.089844 339.988281 134.785156 C 344.664062 135.476562 349.324219 136.285156 353.960938 137.207031 C 358.597656 138.128906 363.207031 139.167969 367.792969 140.316406 C 372.378906 141.464844 376.933594 142.722656 381.460938 144.097656 C 385.984375 145.46875 390.472656 146.953125 394.921875 148.542969 C 399.375 150.136719 403.785156 151.839844 408.152344 153.648438 C 412.519531 155.457031 416.839844 157.371094 421.113281 159.394531 C 425.390625 161.414062 429.609375 163.539062 433.78125 165.769531 C 437.949219 167.996094 442.0625 170.328125 446.117188 172.757812 C 450.171875 175.1875 454.164062 177.71875 458.097656 180.34375 C 462.027344 182.96875 465.890625 185.691406 469.691406 188.507812 C 473.488281 191.324219 477.214844 194.230469 480.867188 197.230469 C 484.523438 200.230469 488.101562 203.316406 491.605469 206.492188 C 495.109375 209.667969 498.53125 212.925781 501.875 216.269531 C 505.21875 219.613281 508.476562 223.035156 511.652344 226.539062 C 514.824219 230.042969 517.914062 233.621094 520.914062 237.277344 C 523.910156 240.929688 526.820312 244.65625 529.636719 248.453125 C 532.453125 252.25 535.171875 256.117188 537.800781 260.046875 C 540.425781 263.976562 542.957031 267.972656 545.386719 272.027344 C 547.816406 276.082031 550.148438 280.195312 552.375 284.363281 C 554.605469 288.53125 556.730469 292.753906 558.75 297.027344 C 560.773438 301.300781 562.6875 305.625 564.496094 309.992188 C 566.304688 314.359375 568.007812 318.769531 569.597656 323.21875 C 571.191406 327.671875 572.675781 332.160156 574.046875 336.683594 C 575.417969 341.207031 576.679688 345.761719 577.828125 350.351562 C 578.976562 354.9375 580.011719 359.546875 580.9375 364.183594 C 581.859375 368.820312 582.667969 373.476562 583.359375 378.15625 C 584.054688 382.832031 584.632812 387.523438 585.09375 392.226562 C 585.558594 396.933594 585.90625 401.644531 586.136719 406.367188 C 586.371094 411.089844 586.488281 415.816406 586.488281 420.542969 Z M 586.488281 420.542969 "/></g><path style=" stroke:none;fill-rule:evenodd;fill:#ffffff;fill-opacity:1;" d="M 346.742188 518.613281 C 362.6875 521.371094 375.765625 525.382812 384.285156 530.046875 C 395.667969 536.253906 400.496094 544.566406 400.496094 552.039062 C 400.496094 559.503906 395.667969 567.816406 384.285156 574.027344 C 368.039062 582.910156 335.359375 589.425781 297.625 589.425781 C 259.890625 589.425781 227.171875 582.910156 210.925781 574.027344 C 199.578125 567.816406 194.71875 559.503906 194.71875 552.039062 C 194.71875 544.566406 199.578125 536.253906 210.925781 530.046875 C 219.484375 525.382812 232.523438 521.371094 248.46875 518.613281 C 254.125 526.207031 259.589844 533.207031 264.605469 539.449219 C 249.941406 541.125 237.3125 543.90625 228.039062 547.484375 C 224.984375 548.660156 221.746094 550.648438 219.632812 552.039062 C 221.746094 553.421875 224.984375 555.414062 228.039062 556.585938 C 243.71875 562.648438 269.050781 566.414062 297.625 566.414062 C 326.160156 566.414062 351.492188 562.648438 367.210938 556.585938 C 370.226562 555.414062 373.503906 553.421875 375.578125 552.039062 C 373.503906 550.648438 370.226562 548.660156 367.210938 547.484375 C 357.9375 543.90625 345.273438 541.125 330.609375 539.449219 C 335.660156 533.207031 341.125 526.207031 346.742188 518.613281 Z M 304.5625 547.480469 C 302.789062 549.464844 300.261719 550.601562 297.625 550.601562 C 294.949219 550.601562 292.421875 549.46875 290.6875 547.496094 C 273.5 527.742188 242.023438 488.875 219.597656 445.507812 C 204.96875 417.269531 194.152344 387.128906 194.152344 359.234375 C 194.152344 299.941406 240.441406 251.671875 297.625 251.671875 C 354.808594 251.671875 401.0625 299.941406 401.0625 359.234375 C 401.0625 387.128906 390.242188 417.269531 375.617188 445.507812 C 353.1875 488.875 321.710938 527.742188 304.5625 547.480469 Z M 297.625 303.167969 C 270.558594 303.167969 248.621094 325.117188 248.621094 352.15625 C 248.621094 379.1875 270.558594 401.136719 297.625 401.136719 C 324.652344 401.136719 346.589844 379.1875 346.589844 352.15625 C 346.589844 325.117188 324.652344 303.167969 297.625 303.167969 Z M 297.625 303.167969 "/></g></svg>