<svg xmlns="http://www.w3.org/2000/svg" xmlns:xlink="http://www.w3.org/1999/xlink" width="794" zoomAndPan="magnify" viewBox="0 0 594.95996 842.24997" height="1123" preserveAspectRatio="xMidYMid meet" version="1.2"><defs><clipPath id="b763ccf6c8"><path d="M 8.742188 131.695312 L 586.476562 131.695312 L 586.476562 709.429688 L 8.742188 709.429688 Z M 8.742188 131.695312 "/></clipPath></defs><g id="62ece5a21d"><g clip-rule="nonzero" clip-path="url(#b763ccf6c8)"><path style=" stroke:none;fill-rule:nonzero;fill:#10c03e;fill-opacity:1;" d="M 586.519531 420.601562 C 586.519531 425.332031 586.402344 430.054688 586.171875 434.777344 C 585.9375 439.5 585.589844 444.210938 585.128906 448.917969 C 584.664062 453.621094 584.085938 458.3125 583.390625 462.988281 C 582.699219 467.664062 581.890625 472.320312 580.96875 476.957031 C 580.046875 481.59375 579.011719 486.207031 577.863281 490.792969 C 576.714844 495.378906 575.453125 499.933594 574.082031 504.457031 C 572.707031 508.980469 571.226562 513.46875 569.632812 517.921875 C 568.039062 522.371094 566.339844 526.78125 564.53125 531.148438 C 562.722656 535.515625 560.804688 539.835938 558.785156 544.109375 C 556.761719 548.382812 554.636719 552.605469 552.410156 556.773438 C 550.179688 560.945312 547.851562 565.054688 545.421875 569.109375 C 542.992188 573.167969 540.460938 577.160156 537.835938 581.089844 C 535.210938 585.019531 532.488281 588.882812 529.671875 592.683594 C 526.855469 596.480469 523.949219 600.203125 520.949219 603.859375 C 517.949219 607.515625 514.863281 611.09375 511.6875 614.59375 C 508.511719 618.097656 505.253906 621.519531 501.910156 624.863281 C 498.566406 628.207031 495.144531 631.464844 491.640625 634.640625 C 488.140625 637.816406 484.5625 640.902344 480.90625 643.902344 C 477.253906 646.902344 473.527344 649.808594 469.730469 652.625 C 465.933594 655.441406 462.066406 658.160156 458.136719 660.789062 C 454.207031 663.414062 450.214844 665.945312 446.160156 668.375 C 442.101562 670.804688 437.992188 673.132812 433.820312 675.363281 C 429.652344 677.589844 425.429688 679.714844 421.15625 681.738281 C 416.882812 683.757812 412.5625 685.671875 408.195312 687.484375 C 403.828125 689.292969 399.417969 690.992188 394.96875 692.585938 C 390.515625 694.179688 386.027344 695.660156 381.503906 697.03125 C 376.980469 698.40625 372.425781 699.664062 367.839844 700.816406 C 363.253906 701.964844 358.640625 703 354.003906 703.921875 C 349.367188 704.84375 344.710938 705.652344 340.035156 706.34375 C 335.359375 707.039062 330.667969 707.617188 325.964844 708.082031 C 321.257812 708.542969 316.546875 708.890625 311.824219 709.125 C 307.101562 709.355469 302.378906 709.472656 297.648438 709.472656 C 292.921875 709.472656 288.199219 709.355469 283.476562 709.125 C 278.753906 708.890625 274.039062 708.542969 269.335938 708.082031 C 264.632812 707.617188 259.941406 707.039062 255.265625 706.34375 C 250.589844 705.652344 245.929688 704.84375 241.292969 703.921875 C 236.65625 703 232.046875 701.964844 227.460938 700.816406 C 222.875 699.664062 218.320312 698.40625 213.796875 697.03125 C 209.273438 695.660156 204.785156 694.179688 200.332031 692.585938 C 195.882812 690.992188 191.472656 689.292969 187.105469 687.484375 C 182.738281 685.671875 178.417969 683.757812 174.144531 681.738281 C 169.871094 679.714844 165.648438 677.589844 161.480469 675.363281 C 157.308594 673.132812 153.195312 670.804688 149.140625 668.375 C 145.085938 665.945312 141.09375 663.414062 137.164062 660.789062 C 133.234375 658.160156 129.367188 655.441406 125.570312 652.625 C 121.773438 649.808594 118.046875 646.902344 114.394531 643.902344 C 110.738281 640.902344 107.160156 637.816406 103.65625 634.640625 C 100.15625 631.464844 96.730469 628.207031 93.390625 624.863281 C 90.046875 621.519531 86.789062 618.097656 83.613281 614.59375 C 80.4375 611.09375 77.351562 607.515625 74.351562 603.859375 C 71.351562 600.203125 68.445312 596.480469 65.628906 592.683594 C 62.8125 588.882812 60.089844 585.019531 57.464844 581.089844 C 54.839844 577.160156 52.308594 573.167969 49.878906 569.109375 C 47.449219 565.054688 45.121094 560.945312 42.890625 556.773438 C 40.664062 552.605469 38.539062 548.382812 36.515625 544.109375 C 34.496094 539.835938 32.578125 535.515625 30.769531 531.148438 C 28.960938 526.78125 27.261719 522.371094 25.667969 517.921875 C 24.074219 513.46875 22.59375 508.980469 21.21875 504.457031 C 19.847656 499.933594 18.585938 495.378906 17.4375 490.792969 C 16.289062 486.207031 15.253906 481.59375 14.332031 476.957031 C 13.410156 472.320312 12.601562 467.664062 11.910156 462.988281 C 11.214844 458.3125 10.636719 453.621094 10.171875 448.917969 C 9.710938 444.210938 9.363281 439.5 9.128906 434.777344 C 8.898438 430.054688 8.78125 425.332031 8.78125 420.601562 C 8.78125 415.875 8.898438 411.152344 9.128906 406.429688 C 9.363281 401.707031 9.710938 396.992188 10.171875 392.289062 C 10.636719 387.585938 11.214844 382.894531 11.910156 378.21875 C 12.601562 373.539062 13.410156 368.882812 14.332031 364.246094 C 15.253906 359.609375 16.289062 355 17.4375 350.414062 C 18.585938 345.828125 19.847656 341.273438 21.21875 336.75 C 22.59375 332.226562 24.074219 327.738281 25.667969 323.285156 C 27.261719 318.835938 28.960938 314.425781 30.769531 310.058594 C 32.578125 305.691406 34.496094 301.371094 36.515625 297.097656 C 38.539062 292.820312 40.664062 288.601562 42.890625 284.429688 C 45.121094 280.261719 47.449219 276.148438 49.878906 272.09375 C 52.308594 268.039062 54.839844 264.046875 57.464844 260.117188 C 60.089844 256.183594 62.8125 252.320312 65.628906 248.523438 C 68.445312 244.726562 71.351562 241 74.351562 237.347656 C 77.351562 233.691406 80.4375 230.113281 83.613281 226.609375 C 86.789062 223.109375 90.046875 219.683594 93.390625 216.34375 C 96.730469 213 100.15625 209.742188 103.65625 206.566406 C 107.160156 203.390625 110.738281 200.304688 114.394531 197.304688 C 118.046875 194.304688 121.773438 191.398438 125.570312 188.582031 C 129.367188 185.765625 133.234375 183.042969 137.164062 180.417969 C 141.09375 177.792969 145.085938 175.261719 149.140625 172.832031 C 153.195312 170.402344 157.308594 168.070312 161.480469 165.84375 C 165.648438 163.613281 169.871094 161.492188 174.144531 159.46875 C 178.417969 157.449219 182.738281 155.53125 187.105469 153.722656 C 191.472656 151.914062 195.882812 150.214844 200.332031 148.621094 C 204.785156 147.027344 209.273438 145.546875 213.796875 144.171875 C 218.320312 142.800781 222.875 141.539062 227.460938 140.390625 C 232.046875 139.242188 236.65625 138.207031 241.292969 137.285156 C 245.929688 136.363281 250.589844 135.554688 255.265625 134.859375 C 259.941406 134.167969 264.632812 133.589844 269.335938 133.125 C 274.039062 132.660156 278.753906 132.3125 283.476562 132.082031 C 288.199219 131.851562 292.921875 131.734375 297.648438 131.734375 C 302.378906 131.734375 307.101562 131.851562 311.824219 132.082031 C 316.546875 132.3125 321.257812 132.660156 325.964844 133.125 C 330.667969 133.589844 335.359375 134.167969 340.035156 134.859375 C 344.710938 135.554688 349.367188 136.363281 354.003906 137.285156 C 358.640625 138.207031 363.253906 139.242188 367.839844 140.390625 C 372.425781 141.539062 376.980469 142.800781 381.503906 144.171875 C 386.027344 145.546875 390.515625 147.027344 394.96875 148.621094 C 399.417969 150.214844 403.828125 151.914062 408.195312 153.722656 C 412.5625 155.53125 416.882812 157.449219 421.15625 159.46875 C 425.429688 161.492188 429.652344 163.613281 433.820312 165.84375 C 437.992188 168.074219 442.101562 170.402344 446.160156 172.832031 C 450.214844 175.261719 454.207031 177.792969 458.136719 180.417969 C 462.066406 183.042969 465.933594 185.765625 469.730469 188.582031 C 473.527344 191.398438 477.253906 194.304688 480.90625 197.304688 C 484.5625 200.304688 488.140625 203.390625 491.640625 206.566406 C 495.144531 209.742188 498.566406 213 501.910156 216.34375 C 505.253906 219.683594 508.511719 223.109375 511.6875 226.609375 C 514.863281 230.113281 517.949219 233.691406 520.949219 237.347656 C 523.949219 241 526.855469 244.726562 529.671875 248.523438 C 532.488281 252.320312 535.210938 256.183594 537.835938 260.117188 C 540.460938 264.046875 542.992188 268.039062 545.421875 272.09375 C 547.851562 276.148438 550.179688 280.261719 552.410156 284.429688 C 554.636719 288.601562 556.761719 292.820312 558.785156 297.097656 C 560.804688 301.371094 562.722656 305.691406 564.53125 310.058594 C 566.339844 314.425781 568.039062 318.835938 569.632812 323.285156 C 571.226562 327.738281 572.707031 332.226562 574.082031 336.75 C 575.453125 341.273438 576.714844 345.828125 577.863281 350.414062 C 579.011719 355 580.046875 359.609375 580.96875 364.246094 C 581.890625 368.882812 582.699219 373.539062 583.390625 378.21875 C 584.085938 382.894531 584.664062 387.585938 585.128906 392.289062 C 585.589844 396.992188 585.9375 401.707031 586.171875 406.429688 C 586.402344 411.152344 586.519531 415.875 586.519531 420.601562 Z M 586.519531 420.601562 "/></g><path style=" stroke:none;fill-rule:nonzero;fill:#ffffff;fill-opacity:1;" d="M 297.648438 650.625 C 236.210938 650.625 178.445312 626.699219 135 583.253906 C 91.554688 539.808594 67.628906 482.042969 67.628906 420.601562 C 67.628906 359.160156 91.554688 301.398438 135 257.953125 C 178.445312 214.503906 236.207031 190.578125 297.648438 190.578125 C 359.09375 190.578125 416.855469 214.507812 460.300781 257.953125 C 503.746094 301.398438 527.671875 359.160156 527.671875 420.601562 C 527.671875 482.042969 503.746094 539.808594 460.300781 583.253906 C 416.855469 626.699219 359.09375 650.625 297.648438 650.625 Z M 297.648438 200.539062 C 238.871094 200.539062 183.605469 223.429688 142.042969 264.996094 C 100.476562 306.558594 77.589844 361.824219 77.589844 420.601562 C 77.589844 479.382812 100.476562 534.648438 142.042969 576.210938 C 183.605469 617.773438 238.871094 640.664062 297.648438 640.664062 C 356.429688 640.664062 411.695312 617.773438 453.257812 576.210938 C 494.824219 534.644531 517.710938 479.382812 517.710938 420.601562 C 517.710938 361.824219 494.824219 306.558594 453.257812 264.996094 C 411.695312 223.429688 356.429688 200.539062 297.648438 200.539062 Z M 297.648438 200.539062 "/><path style=" stroke:none;fill-rule:nonzero;fill:#ffffff;fill-opacity:1;" d="M 411.84375 474.820312 L 363.816406 448.757812 C 358.878906 446.082031 352.769531 446.964844 348.800781 450.9375 L 322.992188 476.742188 C 305.839844 468.304688 289.683594 456.710938 275.613281 442.640625 C 261.542969 428.570312 249.949219 412.414062 241.511719 395.261719 L 267.316406 369.453125 C 271.289062 365.484375 272.175781 359.375 269.496094 354.4375 L 243.433594 306.410156 C 240.832031 301.613281 235.453125 299.023438 230.082031 299.972656 L 187.898438 307.425781 C 182.027344 308.464844 177.648438 313.378906 177.234375 319.324219 C 173.382812 374.667969 196.765625 432.996094 241.011719 477.242188 C 285.257812 521.488281 343.585938 544.871094 398.929688 541.019531 C 404.875 540.605469 409.792969 536.226562 410.828125 530.355469 L 418.28125 488.171875 C 419.230469 482.800781 416.636719 477.425781 411.84375 474.820312 Z M 411.84375 474.820312 "/></g></svg>